<?xml version="1.0" encoding="UTF-8"?>
<svg version="1.1" xmlns="http://www.w3.org/2000/svg" width="48" height="48">
<path d="M0 0 C4.68796317 2.8950501 8.77605467 6.42344712 10.234375 11.89453125 C11.16656452 18.74158704 11.3930195 24.99387098 7.671875 31.01953125 C3.66347868 35.99068326 0.31000422 38.47580101 -6.0078125 39.3359375 C-13.1275177 39.69575056 -18.34453314 39.19135672 -23.98828125 34.640625 C-29.08369757 29.63479842 -30.03494232 26.05750776 -30.390625 19.01953125 C-30.17838344 12.13997715 -28.58962241 7.80486419 -23.765625 2.89453125 C-17.29271618 -2.6344117 -7.84970384 -3.13766411 0 0 Z M-24.203125 10.01953125 C-26.7034529 15.06348277 -26.81758573 20.62038128 -25.10546875 25.94921875 C-23.2209869 29.75081417 -20.61938991 32.3189381 -16.84765625 34.25 C-12.88642285 35.47627301 -8.86030926 35.1911281 -4.765625 34.89453125 C-5.41849688 31.08611195 -7.18661151 28.36529804 -9.265625 25.14453125 C-10.20921875 23.66726562 -10.20921875 23.66726562 -11.171875 22.16015625 C-11.6978125 21.4125 -12.22375 20.66484375 -12.765625 19.89453125 C-13.095625 19.89453125 -13.425625 19.89453125 -13.765625 19.89453125 C-13.765625 22.53453125 -13.765625 25.17453125 -13.765625 27.89453125 C-14.755625 27.89453125 -15.745625 27.89453125 -16.765625 27.89453125 C-16.765625 22.61453125 -16.765625 17.33453125 -16.765625 11.89453125 C-12.80607717 13.87430516 -12.01376766 14.53326757 -9.75 18.02734375 C-9.22148437 18.83300781 -8.69296875 19.63867188 -8.1484375 20.46875 C-7.60960938 21.31050781 -7.07078125 22.15226562 -6.515625 23.01953125 C-5.96132813 23.86902344 -5.40703125 24.71851562 -4.8359375 25.59375 C-3.47068294 27.68870958 -2.11437967 29.788926 -0.765625 31.89453125 C2.77385991 30.71470295 3.71196533 29.29188071 5.43359375 26.0546875 C7.16272786 21.3902428 7.09093528 16.56051178 5.57421875 11.83984375 C3.68925167 8.03726947 1.09163678 5.43965458 -2.7109375 3.5546875 C-11.35288371 0.77809262 -18.65271441 2.90362023 -24.203125 10.01953125 Z " fill="#FFFFFF" transform="translate(33.765625,5.10546875)"/>
<path d="M0 0 C0.99 0 1.98 0 3 0 C3 4.95 3 9.9 3 15 C0 12 0 12 -0.29296875 9.08203125 C-0.25816406 8.00308594 -0.22335938 6.92414062 -0.1875 5.8125 C-0.16042969 4.72582031 -0.13335938 3.63914062 -0.10546875 2.51953125 C-0.07066406 1.68808594 -0.03585938 0.85664063 0 0 Z " fill="#FFFFFF" transform="translate(28,15)"/>
</svg>
